<?xml version="1.0" standalone="no"?>
<!DOCTYPE svg PUBLIC "-//W3C//DTD SVG 20010904//EN"
 "http://www.w3.org/TR/2001/REC-SVG-20010904/DTD/svg10.dtd">
<svg version="1.0" xmlns="http://www.w3.org/2000/svg"
 width="201.000000pt" height="203.000000pt" viewBox="0 0 201.000000 203.000000"
 preserveAspectRatio="xMidYMid meet">
<metadata>
Created by potrace 1.16, written by Peter Selinger 2001-2019
</metadata>
<g transform="translate(0.000000,203.000000) scale(0.100000,-0.100000)"
fill="#fc5c55" stroke="none">
<path d="M63 2002 c-6 -4 403 -6 908 -4 591 2 933 -1 956 -7 29 -8 34 -8 24 2
-9 9 -229 13 -944 14 -513 1 -937 -1 -944 -5z"/>
<path d="M58 1983 c-17 -4 -18 -59 -18 -968 l0 -963 23 -6 c12 -3 444 -6 960
-6 l937 0 2 483 3 482 5 -480 5 -480 4 485 c2 267 3 699 3 960 l-1 475 -38 12
c-28 9 -275 11 -953 11 -503 0 -923 -3 -932 -5z m1919 -75 c-2 -13 -4 -5 -4
17 -1 22 1 32 4 23 2 -10 2 -28 0 -40z m-10 -405 c-1 -71 -3 -13 -3 127 0 140
2 198 3 128 2 -71 2 -185 0 -255z m-817 185 c118 -23 232 -81 315 -161 33 -32
54 -56 48 -52 -32 16 -1 -34 32 -53 11 -6 14 -12 7 -12 -7 0 -10 -5 -7 -10 4
-6 10 -8 15 -5 5 3 12 0 16 -6 4 -8 3 -9 -4 -5 -14 8 -15 4 -6 -18 3 -9 10
-13 15 -10 5 3 6 -3 2 -12 -4 -12 -3 -15 5 -10 8 5 10 1 5 -10 -4 -11 -3 -15
4 -11 7 5 9 0 6 -13 -3 -11 -1 -26 5 -33 5 -6 13 -30 17 -52 5 -22 10 -47 11
-55 11 -49 14 -184 6 -238 -5 -34 -5 -65 0 -68 4 -3 8 -11 7 -17 0 -7 -3 -5
-6 3 -4 9 -13 -7 -24 -40 -10 -30 -14 -56 -9 -58 5 -2 4 -9 -3 -17 -7 -7 -16
-10 -22 -7 -5 3 -3 -3 5 -13 9 -11 10 -16 3 -11 -8 4 -13 1 -13 -9 0 -10 -5
-13 -12 -9 -8 5 -7 0 2 -11 9 -11 10 -16 3 -11 -7 4 -13 5 -13 2 0 -2 -3 -12
-7 -22 -5 -13 -3 -15 7 -9 9 5 11 4 6 -4 -4 -6 -11 -9 -16 -6 -4 3 -20 -12
-36 -32 -20 -27 -23 -35 -10 -30 10 4 15 3 11 -3 -3 -6 -12 -10 -19 -10 -7 0
-25 -11 -40 -25 -30 -28 -24 -35 7 -7 11 9 17 11 13 5 -12 -22 -128 -100 -188
-127 -93 -42 -179 -58 -293 -53 -107 5 -134 9 -204 33 -80 27 -191 96 -236
146 l-30 33 40 -35 c88 -78 191 -131 300 -156 71 -15 231 -15 300 1 74 17 193
71 235 106 25 21 24 21 -10 -1 -133 -82 -250 -114 -395 -107 -107 5 -134 9
-204 33 -79 27 -192 96 -234 143 -15 17 -33 31 -40 31 -8 0 -8 3 2 9 11 7 9
10 -8 16 -12 3 -19 11 -16 16 4 5 -2 9 -12 9 -15 0 -16 2 -3 10 13 8 13 11 1
22 -12 11 -12 10 -6 -2 8 -13 7 -13 -8 -1 -18 15 -23 26 -7 16 6 -3 10 1 10 9
0 8 -5 18 -12 22 -7 5 -8 3 -3 -7 8 -12 6 -12 -8 0 -18 15 -23 26 -7 16 6 -3
10 1 10 9 0 8 -5 18 -12 22 -7 5 -8 3 -3 -7 8 -12 6 -12 -8 0 -19 15 -23 26
-6 15 13 -8 10 13 -14 111 -16 64 -17 258 -2 349 7 41 6 48 -6 41 -11 -7 -12
-6 -3 6 6 8 14 27 18 43 4 15 9 26 11 24 3 -2 0 -19 -5 -38 -7 -23 -6 -30 1
-23 6 6 11 26 12 46 1 19 4 33 6 31 4 -3 81 123 81 133 0 2 -4 1 -10 -2 -18
-11 -11 1 12 21 19 15 20 16 9 2 -21 -27 -7 -21 20 9 13 14 18 23 10 18 -9 -5
-12 -4 -7 3 4 7 14 12 22 12 8 0 12 5 9 10 -3 6 0 10 7 10 7 0 33 14 58 30 51
35 131 73 175 85 65 16 84 18 198 19 83 1 108 3 85 9 -31 8 -175 5 -228 -6
-79 -15 -148 -43 -215 -87 -53 -35 -65 -42 -65 -37 0 5 67 50 115 77 41 23
155 61 164 56 4 -3 13 -1 21 4 15 9 200 7 250 -2z m827 -385 c-3 -10 -5 -2 -5
17 0 19 2 27 5 18 2 -10 2 -26 0 -35z m-360 -25 c-3 -8 -6 -5 -6 6 -1 11 2 17
5 13 3 -3 4 -12 1 -19z m350 -30 c-3 -7 -5 -2 -5 12 0 14 2 19 5 13 2 -7 2
-19 0 -25z m-330 -30 c-3 -8 -6 -5 -6 6 -1 11 2 17 5 13 3 -3 4 -12 1 -19z
m342 -70 c-1 -46 -5 -92 -10 -103 -6 -14 -7 -10 -4 15 2 19 4 65 4 103 1 37 3
67 7 67 3 0 4 -37 3 -82z m-1585 28 c-3 -21 -8 -35 -11 -32 -2 2 -1 20 3 40 3
21 8 35 11 32 2 -2 1 -20 -3 -40z m1259 9 c4 -8 3 -16 -1 -19 -4 -3 -9 4 -9
15 -2 23 3 25 10 4z m16 -165 c0 -30 -4 -75 -7 -100 -5 -28 -7 7 -7 94 0 83 3
123 7 100 4 -21 7 -64 7 -94z m-1284 0 c0 -49 -3 -82 -7 -72 -11 29 -7 162 6
162 0 0 1 -40 1 -90z m2 -152 c-3 -8 -6 -5 -6 6 -1 11 2 17 5 13 3 -3 4 -12 1
-19z m10 -50 c-3 -7 -5 -2 -5 12 0 14 2 19 5 13 2 -7 2 -19 0 -25z m1240 -20
c-3 -8 -6 -5 -6 6 -1 11 2 17 5 13 3 -3 4 -12 1 -19z m-1218 -38 c0 -10 -3 -8
-9 5 -12 27 -12 43 0 25 5 -8 9 -22 9 -30z m1202 -3 c-10 -9 -11 -8 -5 6 3 10
9 15 12 12 3 -3 0 -11 -7 -18z"/>
<path d="M1150 1676 c0 -3 26 -13 58 -22 77 -22 184 -80 246 -133 l51 -43 -51
48 c-55 53 -163 115 -232 134 -24 6 -50 14 -58 17 -8 3 -14 3 -14 -1z"/>
<path d="M995 1428 c9 -6 25 -8 36 -5 10 3 16 1 13 -4 -3 -5 -27 -7 -54 -3
-63 8 -119 -17 -175 -78 l-40 -43 45 41 c51 47 110 78 137 71 15 -4 15 -5 -3
-6 -34 -2 -97 -37 -133 -75 -19 -20 -41 -36 -48 -36 -22 0 -66 -111 -83 -208
-8 -48 -8 -81 2 -138 13 -78 64 -199 85 -199 6 0 15 -4 20 -9 5 -5 3 -6 -4 -2
-26 15 -12 -11 25 -46 53 -52 87 -65 170 -67 82 -1 147 16 202 55 l35 25 -34
-30 c-45 -40 -126 -65 -191 -59 -28 3 -52 2 -54 -1 -3 -4 22 -8 54 -9 81 -4
151 21 208 75 26 24 41 41 33 37 -9 -5 -12 -3 -7 4 4 7 14 12 22 12 22 0 70
113 83 197 13 85 1 196 -31 282 -28 75 -130 182 -191 201 -23 7 -49 15 -57 17
-8 3 -30 6 -49 8 -25 1 -29 0 -16 -7z m145 -36 c14 -6 45 -32 70 -59 l45 -48
-50 46 c-51 47 -92 69 -125 69 -10 0 -21 4 -24 9 -6 10 43 0 84 -17z m-379
-135 c-10 -9 -11 -8 -5 6 3 10 9 15 12 12 3 -3 0 -11 -7 -18z m555 -109 c19
-69 21 -212 5 -268 -8 -28 -9 -23 -3 25 13 109 2 213 -33 320 -6 17 -5 18 4 3
6 -9 18 -45 27 -80z m-579 50 c-3 -8 -6 -5 -6 6 -1 11 2 17 5 13 3 -3 4 -12 1
-19z m-26 -113 c-7 -37 -10 -88 -7 -113 l5 -47 -10 40 c-7 28 -7 62 2 118 6
43 14 76 16 73 3 -3 0 -35 -6 -71z m13 -205 c4 -25 3 -31 -4 -20 -5 8 -10 26
-10 39 0 32 6 24 14 -19z m567 -87 c-12 -20 -14 -14 -5 12 4 9 9 14 11 11 3
-2 0 -13 -6 -23z m-396 -141 c22 -12 36 -21 32 -22 -17 -1 -83 39 -102 61
l-20 24 25 -21 c14 -12 43 -31 65 -42z"/>
<path d="M25 1015 c0 -528 1 -743 2 -477 2 266 2 698 0 960 -1 262 -2 45 -2
-483z"/>
<path d="M63 28 c7 -4 435 -7 952 -6 517 0 931 3 920 5 -39 7 -1883 8 -1872 1z"/>
</g>
</svg>
