<?xml version="1.0" standalone="no"?>
<!DOCTYPE svg PUBLIC "-//W3C//DTD SVG 20010904//EN"
 "http://www.w3.org/TR/2001/REC-SVG-20010904/DTD/svg10.dtd">
<svg version="1.0" xmlns="http://www.w3.org/2000/svg"
 width="160.000000pt" height="371.000000pt" viewBox="0 0 160.000000 371.000000"
 preserveAspectRatio="xMidYMid meet">
<metadata>
Created by potrace 1.16, written by Peter Selinger 2001-2019
</metadata>
<g transform="translate(0.000000,371.000000) scale(0.100000,-0.100000)"
fill="#ffc33a" stroke="none">
<path d="M57 3683 c-5 -8 1457 -7 1477 1 6 2 -323 4 -731 5 -408 1 -744 -2
-746 -6z"/>
<path d="M43 3660 l-23 -9 2 -1803 3 -1803 5 1805 5 1805 3 -1807 2 -1808 24
0 c48 0 72 17 88 62 30 86 58 173 58 181 0 5 -6 5 -13 1 -8 -5 -8 -2 2 9 15
19 26 23 15 5 -4 -7 -3 -8 5 -4 6 4 11 13 10 19 -2 11 10 48 31 92 5 11 16 40
24 65 29 87 53 150 59 157 4 3 7 16 7 28 0 12 3 25 7 28 6 7 16 33 83 222 33
93 55 154 105 290 4 11 14 38 22 60 12 33 14 110 13 465 -1 234 -2 500 -1 593
l1 167 384 0 c212 0 387 3 389 8 3 4 -171 7 -386 7 l-392 -1 395 6 c217 3 401
9 408 13 9 6 12 56 12 193 l0 184 -27 11 c-16 6 -173 9 -410 9 -212 -1 -387 1
-390 4 -3 3 175 4 395 3 220 -1 398 1 395 6 -2 4 -167 7 -366 7 -199 0 -372 0
-384 0 -23 0 -23 1 -23 154 l0 155 483 -6 c265 -3 480 -3 477 -1 -3 3 -223 8
-490 11 l-485 6 1 -162 0 -162 -5 160 c-3 88 -5 163 -3 167 1 4 225 4 496 1
l493 -6 6 74 c3 41 6 101 7 134 1 33 4 62 7 65 3 3 3 -56 0 -130 -3 -93 -2
-118 4 -80 7 46 6 209 -1 325 l-2 30 -8 -30 -8 -30 -1 32 -1 32 -742 0 c-420
0 -753 -4 -765 -9z m1334 -1047 c-1 -54 -3 -12 -3 92 0 105 2 149 3 98 2 -51
2 -136 0 -190z m-810 -386 c-1 -45 -3 -5 -3 88 0 94 2 130 3 82 2 -48 2 -125
0 -170z m-10 -134 c-3 -10 -5 -2 -5 17 0 19 2 27 5 18 2 -10 2 -26 0 -35z m10
-620 c-1 -109 -2 -22 -2 192 0 215 1 304 2 198 2 -105 2 -281 0 -390z m-16
-230 c-12 -20 -14 -14 -5 12 4 9 9 14 11 11 3 -2 0 -13 -6 -23z m-25 -61 c-15
-15 -15 -15 -4 10 7 15 15 23 17 17 2 -6 -4 -18 -13 -27z m-35 -109 c-12 -20
-14 -14 -5 12 4 9 9 14 11 11 3 -2 0 -13 -6 -23z m-80 -220 c-12 -20 -14 -14
-5 12 4 9 9 14 11 11 3 -2 0 -13 -6 -23z m-21 -60 c-11 -17 -11 -17 -6 0 3 10
6 24 7 30 0 9 2 9 5 0 3 -7 0 -20 -6 -30z m-44 -111 c-15 -15 -15 -15 -4 10 7
15 15 23 17 17 2 -6 -4 -18 -13 -27z m-20 -60 c-15 -15 -15 -15 -4 10 7 15 15
23 17 17 2 -6 -4 -18 -13 -27z m-35 -99 c-12 -20 -14 -14 -5 12 4 9 9 14 11
11 3 -2 0 -13 -6 -23z m-21 -60 c-11 -17 -11 -17 -6 0 3 10 6 24 7 30 0 9 2 9
5 0 3 -7 0 -20 -6 -30z m-24 -61 c-15 -15 -15 -15 -4 10 7 15 15 23 17 17 2
-6 -4 -18 -13 -27z m-89 -264 c-3 -7 -5 -2 -5 12 0 14 2 19 5 13 2 -7 2 -19 0
-25z"/>
<path d="M75 30 l-30 -8 27 -1 c15 0 30 4 33 9 3 6 5 9 3 9 -2 -1 -16 -5 -33
-9z"/>
</g>
</svg>
