<?xml version="1.0" standalone="no"?>
<!DOCTYPE svg PUBLIC "-//W3C//DTD SVG 20010904//EN"
 "http://www.w3.org/TR/2001/REC-SVG-20010904/DTD/svg10.dtd">
<svg version="1.0" xmlns="http://www.w3.org/2000/svg"
 width="204.000000pt" height="234.000000pt" viewBox="0 0 204.000000 234.000000"
 preserveAspectRatio="xMidYMid meet">
<metadata>
Created by potrace 1.16, written by Peter Selinger 2001-2019
</metadata>
<g transform="translate(0.000000,234.000000) scale(0.100000,-0.100000)"
fill="#6dccc9" stroke="none">
<path d="M918 2313 c61 -2 163 -2 225 0 61 1 11 3 -113 3 -124 0 -174 -2 -112
-3z"/>
<path d="M800 2289 c0 -5 -4 -7 -10 -4 -6 4 -10 -9 -11 -32 0 -30 -2 -34 -9
-18 -8 18 -9 17 -9 -7 -1 -15 -5 -30 -11 -33 -15 -9 -13 -48 3 -39 7 4 9 3 4
-2 -5 -5 -14 -9 -20 -9 -7 0 -13 -9 -15 -20 -2 -11 -6 -27 -9 -35 -3 -8 -5
-18 -5 -22 1 -5 -2 -8 -6 -8 -5 0 -7 -15 -5 -32 3 -27 1 -29 -6 -13 -9 18 -10
18 -10 -7 -1 -15 -6 -30 -11 -33 -8 -5 -7 -12 2 -23 11 -13 11 -14 -1 -7 -11
6 -13 4 -8 -9 4 -9 3 -15 -2 -12 -5 3 -12 -1 -15 -10 -4 -10 -2 -13 7 -8 9 5
9 4 0 -7 -7 -7 -13 -17 -13 -22 0 -4 6 -5 13 -1 7 4 9 3 4 -2 -5 -5 -13 -9
-18 -9 -6 0 -34 -70 -63 -155 -85 -244 -88 -253 -102 -281 -10 -20 -11 -29 -1
-39 9 -9 9 -11 0 -6 -14 8 -28 -28 -17 -45 5 -8 3 -9 -6 -4 -10 6 -12 4 -7 -9
4 -9 3 -15 -2 -12 -14 9 -21 -20 -8 -34 9 -10 9 -11 0 -6 -14 8 -28 -28 -17
-45 5 -8 3 -9 -6 -4 -10 6 -12 4 -7 -9 4 -10 3 -15 -3 -11 -6 3 -10 1 -10 -4
0 -19 5 -26 14 -23 5 2 5 -3 -1 -10 -6 -7 -13 -20 -17 -28 -3 -8 -4 -5 -2 8 2
12 0 20 -5 16 -5 -3 -9 -14 -9 -25 0 -19 -4 -29 -29 -78 -10 -19 -10 -22 1
-16 10 6 11 5 1 -6 -7 -7 -13 -27 -14 -44 0 -26 -2 -27 -9 -10 -8 18 -9 17 -9
-8 -1 -20 3 -26 12 -21 7 5 7 1 -3 -12 -22 -29 -24 -30 -17 -11 4 11 3 16 -3
12 -6 -3 -10 -14 -10 -24 0 -10 -3 -21 -7 -25 -14 -13 -31 -76 -19 -69 6 3 6
0 -2 -8 -16 -17 -16 -32 1 -23 7 4 9 3 4 -2 -5 -5 -14 -9 -19 -9 -6 0 -13 -6
-16 -14 -3 -9 0 -11 8 -6 7 4 1 -10 -14 -31 -17 -25 -22 -42 -16 -48 6 -6 10
-15 10 -21 0 -5 -5 -3 -11 5 -9 12 -10 11 -6 -8 3 -12 1 -19 -4 -16 -5 3 -12
-8 -15 -25 -4 -17 -11 -31 -17 -31 -6 0 -8 -3 -5 -6 6 -5 -28 -114 -52 -169
-5 -11 -23 -60 -40 -110 -17 -49 -35 -100 -41 -113 -5 -13 -8 -49 -7 -80 l1
-57 7 65 7 65 1 -66 2 -66 198 -5 c139 -4 199 -2 204 6 5 6 8 7 9 1 0 -5 9 8
19 30 19 40 18 61 -3 48 -9 -5 -9 -3 -1 8 6 8 14 21 18 29 3 8 4 5 2 -8 -2
-12 0 -20 5 -16 5 3 9 16 9 29 0 13 4 27 10 30 5 3 10 16 10 28 0 13 7 33 16
45 14 20 12 26 -8 23 -4 0 -5 6 -1 15 4 11 8 12 13 4 4 -6 12 6 18 28 15 48
15 65 2 57 -16 -10 -11 1 7 16 11 10 14 10 9 2 -4 -7 -5 -13 -1 -13 7 0 23 41
21 55 0 6 -4 9 -8 8 -4 -2 -5 4 -1 13 5 13 7 13 14 2 6 -9 9 -7 9 9 0 12 5 25
11 29 6 3 9 17 6 30 -2 14 0 21 6 17 6 -4 8 0 4 11 -4 9 -3 15 2 12 14 -9 21
20 8 34 -9 10 -9 11 0 6 8 -4 15 3 19 21 4 15 11 33 16 40 5 6 8 22 6 35 l-3
23 327 5 c179 3 326 3 326 0 -2 -11 15 -40 21 -36 3 2 7 -8 7 -22 3 -45 55
-182 68 -175 7 4 7 2 -1 -7 -11 -12 -7 -44 6 -36 3 2 7 -7 8 -20 4 -46 6 -53
15 -47 6 3 8 -5 6 -18 -2 -13 2 -24 9 -24 6 0 15 -4 20 -9 4 -5 3 -6 -4 -2 -6
3 -14 2 -18 -4 -3 -5 -2 -10 3 -10 5 0 17 -12 26 -28 l17 -27 -20 24 c-12 13
-21 19 -21 14 0 -5 4 -13 9 -19 5 -5 11 -20 13 -34 1 -14 8 -25 15 -25 6 0 15
-4 20 -9 5 -5 2 -6 -5 -1 -10 5 -13 1 -10 -16 1 -13 10 -24 18 -24 8 0 15 -7
15 -15 0 -28 164 -38 355 -20 65 6 42 7 -95 5 -173 -3 -175 -3 -55 5 69 4 150
8 181 9 l57 1 4 35 c4 36 -13 81 -26 68 -4 -4 -4 1 0 10 4 10 2 28 -3 40 -23
49 -33 79 -34 100 -1 20 -2 20 -8 -3 -7 -24 -8 -24 -12 7 -3 18 -2 30 3 27 4
-3 3 6 -3 20 -7 14 -15 23 -20 21 -4 -3 -5 4 -2 15 3 11 1 26 -4 33 -6 6 -13
26 -17 42 -16 66 -69 184 -80 178 -7 -4 -7 -2 1 7 13 14 6 43 -8 34 -5 -3 -6
3 -2 12 5 13 3 15 -8 9 -11 -7 -12 -6 -3 6 8 10 7 21 -2 39 -7 14 -15 23 -18
20 -2 -3 -8 -1 -13 3 -4 5 -3 7 2 5 20 -6 19 5 -7 74 -6 16 -15 25 -22 21 -7
-4 -7 -1 1 7 10 10 8 20 -9 43 -12 17 -16 27 -9 22 9 -5 12 -3 9 6 -3 8 -10
14 -15 14 -6 0 -15 4 -20 9 -5 5 -3 6 5 2 15 -9 17 30 2 39 -6 4 -7 -1 -3 -12
7 -19 5 -18 -17 11 -10 13 -10 17 -2 12 8 -5 12 0 12 18 0 14 -4 28 -10 31 -5
3 -10 15 -10 25 0 10 -4 22 -10 25 -6 4 -7 -1 -3 -12 7 -19 5 -18 -17 11 -10
13 -10 17 -2 12 14 -9 17 25 3 52 -15 29 -29 65 -42 107 -7 22 -17 44 -21 50
-4 5 -8 18 -8 30 0 12 -4 25 -8 31 -4 5 -16 34 -26 64 -30 92 -38 110 -47 104
-5 -3 -6 2 -3 10 3 9 -12 64 -34 123 -22 60 -43 118 -47 131 -4 13 -11 20 -18
15 -9 -5 -9 -3 -1 8 8 10 8 20 -1 36 -6 13 -14 22 -16 20 -2 -1 -1 2 3 7 4 5
-3 23 -14 39 -12 17 -17 27 -10 23 8 -5 10 -2 6 8 -3 9 -10 13 -15 10 -5 -3
-6 3 -2 12 5 13 3 15 -8 9 -12 -7 -12 -6 -1 7 9 11 10 18 2 23 -5 3 -10 18
-11 33 0 24 -1 25 -9 7 -7 -16 -9 -12 -9 18 -1 23 -5 36 -11 32 -5 -3 -10 -1
-10 4 0 8 -75 11 -230 11 -155 0 -230 -3 -230 -11z m577 -331 c-3 -8 -6 -5 -6
6 -1 11 2 17 5 13 3 -3 4 -12 1 -19z m43 -103 c0 -5 -5 -3 -10 5 -5 8 -10 20
-10 25 0 6 5 3 10 -5 5 -8 10 -19 10 -25z m-799 -66 c-5 -13 -10 -19 -10 -12
-1 15 10 45 15 40 3 -2 0 -15 -5 -28z m838 -49 c0 -10 -3 -8 -9 5 -12 27 -12
43 0 25 5 -8 9 -22 9 -30z m-424 -22 l14 -33 -5 30 c-4 28 -4 29 6 6 7 -16 7
-28 1 -34 -12 -12 -2 -39 12 -30 6 3 7 1 3 -6 -11 -17 3 -53 17 -44 8 4 7 1
-1 -9 -9 -11 -10 -18 -2 -23 5 -3 10 -17 10 -30 0 -13 4 -26 9 -29 5 -4 7 4 5
16 -2 13 -1 16 2 8 4 -8 12 -21 18 -29 9 -12 8 -13 -3 -6 -14 8 -14 5 6 -88 7
-36 21 -44 17 -9 -2 17 -1 20 2 7 4 -11 11 -26 18 -34 8 -12 8 -13 -1 -7 -9 5
-13 0 -13 -18 0 -14 4 -27 9 -30 5 -4 7 4 5 16 -2 13 -1 16 2 8 4 -8 11 -21
17 -28 6 -7 6 -12 1 -11 -21 4 -22 -3 -5 -51 20 -56 32 -75 25 -38 -2 12 -1
16 2 8 4 -8 12 -21 18 -29 8 -11 8 -13 -1 -7 -9 5 -13 -1 -13 -18 l0 -26 -190
0 c-185 0 -190 1 -190 21 0 13 -4 18 -12 13 -10 -6 -10 -4 -2 7 6 8 14 21 18
29 3 8 4 5 2 -8 -2 -12 0 -20 5 -16 15 9 11 56 -3 48 -8 -4 -10 -3 -5 2 5 5
14 9 20 9 7 0 14 11 15 24 3 17 0 21 -10 16 -7 -5 -10 -4 -5 1 5 5 14 9 20 9
7 0 14 14 15 30 2 17 9 36 15 44 10 12 9 13 -3 7 -8 -4 -6 0 4 8 18 15 15 21
-9 16 -5 -1 -6 2 -2 7 5 4 14 8 20 8 5 0 12 6 15 14 3 8 0 11 -5 8 -5 -3 -10
0 -10 8 0 8 5 11 10 8 6 -4 8 1 4 11 -4 9 -3 15 2 12 5 -3 12 1 15 10 3 8 2
13 -2 10 -5 -3 -9 1 -9 9 0 8 5 11 10 8 6 -4 8 1 4 11 -4 9 -3 15 2 12 5 -3
12 1 15 10 3 8 2 13 -2 10 -5 -3 -9 1 -9 9 0 8 4 12 8 9 11 -6 22 33 13 47 -4
8 -3 9 4 5 14 -8 27 37 16 55 -4 7 -3 9 4 5 12 -7 26 29 17 44 -3 5 -4 10 -1
10 3 0 13 -15 21 -32z m-48 -60 c-3 -8 -6 -5 -6 6 -1 11 2 17 5 13 3 -3 4 -12
1 -19z m500 0 c-3 -8 -6 -5 -6 6 -1 11 2 17 5 13 3 -3 4 -12 1 -19z m-920 -30
c-3 -8 -6 -5 -6 6 -1 11 2 17 5 13 3 -3 4 -12 1 -19z m972 -107 c-2 -6 -10 2
-17 17 -11 25 -11 25 4 10 9 -9 15 -21 13 -27z m-1023 -27 c-8 -21 -15 -34
-15 -28 -1 15 20 76 25 71 2 -2 -2 -21 -10 -43z m623 -49 c0 -5 -4 -3 -9 5 -5
8 -9 22 -9 30 0 16 17 -16 18 -35z m418 13 c-3 -8 -6 -5 -6 6 -1 11 2 17 5 13
3 -3 4 -12 1 -19z m-680 -130 c-3 -8 -6 -5 -6 6 -1 11 2 17 5 13 3 -3 4 -12 1
-19z m742 -27 c-2 -6 -10 2 -17 17 -11 25 -11 25 4 10 9 -9 15 -21 13 -27z
m-419 -46 c0 -5 -5 -3 -10 5 -5 8 -10 20 -10 25 0 6 5 3 10 -5 5 -8 10 -19 10
-25z m459 -64 c-2 -6 -10 2 -17 17 -11 25 -11 25 4 10 9 -9 15 -21 13 -27z
m-432 -33 c-3 -8 -6 -5 -6 6 -1 11 2 17 5 13 3 -3 4 -12 1 -19z m-94 -25 c-62
-2 -164 -2 -225 0 -62 1 -12 3 112 3 124 0 174 -2 113 -3z m607 -168 c0 -5 -5
-3 -10 5 -5 8 -10 20 -10 25 0 6 5 3 10 -5 5 -8 10 -19 10 -25z m-1443 -80
c-7 -13 -14 -20 -15 -14 -2 5 2 16 8 24 18 21 20 18 7 -10z m369 -193 c-15
-15 -15 -15 -4 10 7 15 15 23 17 17 2 -6 -4 -18 -13 -27z m1178 -22 c5 -17 4
-20 -2 -10 -5 8 -13 26 -16 40 -5 17 -4 20 2 10 5 -8 13 -26 16 -40z m-455 -5
c0 -5 -4 -3 -9 5 -5 8 -9 22 -9 30 0 16 17 -16 18 -35z m18 -57 c-3 -8 -6 -5
-6 6 -1 11 2 17 5 13 3 -3 4 -12 1 -19z m-1224 -43 c-3 -9 -8 -14 -10 -11 -3
3 -2 9 2 15 9 16 15 13 8 -4z m1706 -24 c-2 -6 -10 2 -17 17 -11 25 -11 25 4
10 9 -9 15 -21 13 -27z m-462 7 c-3 -8 -6 -5 -6 6 -1 11 2 17 5 13 3 -3 4 -12
1 -19z m-821 -26 c-15 -15 -15 -15 -4 10 7 15 15 23 17 17 2 -6 -4 -18 -13
-27z m-445 -13 c-5 -13 -10 -19 -10 -12 -1 15 10 45 15 40 3 -2 0 -15 -5 -28z
m1309 -74 c0 -5 -5 -3 -10 5 -5 8 -10 20 -10 25 0 6 5 3 10 -5 5 -8 10 -19 10
-25z m-1353 -47 c-3 -8 -6 -5 -6 6 -1 11 2 17 5 13 3 -3 4 -12 1 -19z m1852
-67 c-2 -6 -10 2 -17 17 -11 25 -11 25 4 10 9 -9 15 -21 13 -27z m-1475 -120
c-11 -9 -13 -9 -6 -1 6 7 13 23 13 35 1 18 2 18 6 1 3 -10 -3 -25 -13 -35z
m-437 17 c-3 -8 -6 -5 -6 6 -1 11 2 17 5 13 3 -3 4 -12 1 -19z m1551 -35 c-10
-2 -26 -2 -35 0 -10 3 -2 5 17 5 19 0 27 -2 18 -5z m-1147 -100 c-12 -20 -14
-14 -5 12 4 9 9 14 11 11 3 -2 0 -13 -6 -23z"/>
<path d="M848 743 c89 -2 235 -2 325 0 89 1 16 3 -163 3 -179 0 -252 -2 -162
-3z"/>
<path d="M2011 214 c0 -11 3 -14 6 -6 3 7 2 16 -1 19 -3 4 -6 -2 -5 -13z"/>
<path d="M55 35 c6 -2 93 -5 195 -7 102 -2 163 -1 135 3 -49 7 -350 11 -330 4z"/>
</g>
</svg>
