<?xml version="1.0" standalone="no"?>
<!DOCTYPE svg PUBLIC "-//W3C//DTD SVG 20010904//EN"
 "http://www.w3.org/TR/2001/REC-SVG-20010904/DTD/svg10.dtd">
<svg version="1.0" xmlns="http://www.w3.org/2000/svg"
 width="201.000000pt" height="184.000000pt" viewBox="0 0 201.000000 184.000000"
 preserveAspectRatio="xMidYMid meet">
<metadata>
Created by potrace 1.16, written by Peter Selinger 2001-2019
</metadata>
<g transform="translate(0.000000,184.000000) scale(0.100000,-0.100000)"
fill="#fc5c55" stroke="none">
<path d="M68 1809 c-13 -3 96 -7 241 -8 145 -1 269 -4 275 -8 7 -4 8 -2 1 5
-11 12 -476 22 -517 11z"/>
<path d="M1588 1803 c67 -2 177 -2 245 0 67 1 12 3 -123 3 -135 0 -190 -2
-122 -3z"/>
<path d="M68 1792 l-28 -3 -2 -867 -3 -867 -5 865 -5 865 -3 -863 -2 -862 26
-10 c33 -13 375 -13 408 0 l26 10 0 459 c0 257 4 462 9 465 5 3 15 -2 22 -11
10 -12 10 -14 2 -9 -9 5 -13 0 -13 -16 0 -18 2 -20 10 -8 8 12 10 9 10 -12 0
-14 9 -43 19 -65 11 -21 27 -55 36 -75 9 -21 18 -38 21 -38 3 0 2 6 -2 13 -5
8 -2 8 9 -2 18 -15 23 -26 7 -16 -18 11 -11 -13 26 -92 20 -43 43 -96 51 -118
16 -41 40 -77 27 -40 -8 21 -6 21 16 -9 10 -13 10 -17 3 -12 -19 11 -16 -5 14
-70 15 -33 28 -63 28 -69 1 -18 16 -36 25 -30 5 3 12 0 16 -6 4 -8 3 -9 -4 -5
-13 8 -15 -4 -6 -28 3 -9 10 -13 15 -10 5 3 6 -2 3 -10 -3 -8 9 -46 26 -83 18
-37 36 -78 41 -91 5 -12 14 -21 21 -20 7 2 12 -4 13 -12 0 -12 16 -15 80 -16
l80 -1 -80 7 -80 6 83 2 c50 1 82 6 82 13 0 5 4 8 9 5 5 -3 23 26 40 64 34 76
38 95 19 84 -8 -5 -8 -1 2 12 22 30 24 30 16 9 -5 -15 -4 -17 4 -9 7 7 13 23
13 37 1 14 4 24 7 22 3 -2 13 10 22 26 12 20 13 31 6 35 -7 5 -8 2 -3 -6 5 -9
4 -11 -4 -6 -9 6 -9 12 1 24 20 27 22 28 14 7 -17 -47 13 5 34 60 13 33 32 75
42 93 21 38 24 67 6 56 -8 -5 -8 -1 2 12 22 29 24 30 17 11 -12 -32 3 -17 18
19 18 44 19 58 3 48 -9 -5 -9 -2 1 9 15 18 26 23 16 7 -3 -5 -4 -10 -1 -10 2
0 11 13 19 30 11 20 12 32 5 36 -7 5 -8 2 -3 -6 5 -9 4 -11 -4 -6 -9 6 -9 12
1 24 20 27 22 28 15 9 -4 -11 -3 -16 3 -12 6 3 10 10 10 16 0 11 32 86 67 153
13 26 21 56 18 65 -5 12 -3 13 5 4 9 -8 14 -140 17 -465 3 -249 7 -455 10
-458 6 -6 1 639 -6 824 -3 87 -3 163 1 170 4 6 9 -56 10 -139 1 -82 3 -163 4
-180 1 -16 2 -177 3 -356 l1 -326 206 2 c113 2 207 5 210 8 3 3 2 395 -2 871
l-7 866 -249 0 c-182 0 -248 -3 -248 -12 0 -6 -3 -8 -7 -5 -9 10 -35 -45 -30
-65 3 -10 2 -16 -2 -14 -12 8 -61 -101 -61 -137 0 -18 -2 -19 -10 -7 -8 12
-10 10 -10 -8 0 -16 4 -21 13 -16 7 5 7 1 -3 -12 -22 -29 -24 -30 -17 -11 4
11 3 16 -3 12 -6 -3 -10 -15 -10 -26 0 -14 4 -18 13 -13 8 5 8 2 -2 -9 -15
-19 -26 -23 -15 -5 4 7 3 8 -4 4 -7 -4 -12 -18 -12 -32 0 -17 -4 -23 -12 -18
-6 4 -8 3 -5 -3 4 -6 0 -19 -7 -29 -11 -14 -11 -23 -4 -32 8 -9 8 -16 -1 -25
-10 -9 -11 -8 -6 8 6 16 5 17 -4 5 -15 -21 -14 -43 2 -34 6 4 4 -2 -6 -13 -10
-11 -17 -24 -15 -29 2 -5 -2 -11 -7 -12 -27 -9 -35 -24 -23 -40 8 -9 8 -13 2
-9 -7 4 -25 -25 -48 -81 -39 -94 -43 -107 -23 -96 7 5 7 1 -3 -12 -22 -29 -24
-30 -17 -11 11 31 0 18 -21 -23 -13 -26 -16 -43 -9 -47 6 -4 7 -1 2 7 -5 9 -4
11 4 6 9 -6 9 -12 -1 -24 -20 -27 -22 -28 -14 -7 4 12 4 16 -2 10 -5 -5 -17
-32 -27 -58 -21 -56 -35 -69 -35 -32 0 15 -4 24 -10 20 -6 -4 -10 7 -10 27 0
25 -3 29 -10 18 -7 -11 -10 -7 -10 17 0 17 -5 35 -12 39 -7 5 -8 3 -3 -7 8
-12 6 -12 -8 0 -18 14 -23 26 -8 16 6 -3 9 3 8 14 0 11 -5 17 -9 15 -4 -3 -8
6 -8 20 0 14 -4 28 -10 31 -5 3 -10 16 -10 28 0 18 -2 19 -10 7 -8 -12 -10
-11 -10 7 0 37 -49 145 -62 137 -4 -3 -5 2 -2 11 4 9 2 26 -4 38 -5 12 -17 39
-26 60 -10 20 -19 37 -22 37 -3 0 -2 -6 2 -12 5 -9 2 -9 -9 1 -18 15 -23 26
-7 16 14 -9 12 8 -2 24 -9 10 -9 12 -1 7 7 -4 6 5 -3 24 -9 16 -18 30 -20 30
-3 0 -2 -4 1 -10 10 -16 -1 -11 -16 7 -10 11 -10 14 -1 9 16 -10 16 13 -2 50
-21 44 -41 91 -77 177 -22 56 -38 81 -55 87 -22 9 -469 18 -526 12z m1379 -57
c-7 -13 -14 -20 -15 -14 -2 5 2 16 8 24 18 21 20 18 7 -10z m-807 -40 c0 -5
-5 -3 -10 5 -5 8 -10 20 -10 25 0 6 5 3 10 -5 5 -8 10 -19 10 -25z m20 -50 c0
-5 -5 -3 -10 5 -5 8 -10 20 -10 25 0 6 5 3 10 -5 5 -8 10 -19 10 -25z m747 0
c-7 -13 -14 -20 -15 -14 -2 5 2 16 8 24 18 21 20 18 7 -10z m-703 -101 c3 -8
2 -12 -4 -9 -6 3 -10 10 -10 16 0 14 7 11 14 -7z m105 -238 c-3 -3 -11 5 -18
17 -13 21 -12 21 5 5 10 -10 16 -20 13 -22z m18 -58 c-3 -8 -6 -5 -6 6 -1 11
2 17 5 13 3 -3 4 -12 1 -19z m42 -87 c-2 -6 -10 2 -17 17 -11 25 -11 25 4 10
9 -9 15 -21 13 -27z m302 -68 c-12 -20 -14 -14 -5 12 4 9 9 14 11 11 3 -2 0
-13 -6 -23z m-242 -72 c-2 -6 -10 2 -17 17 -11 25 -11 25 4 10 9 -9 15 -21 13
-27z m-462 -718 c-1 -137 -2 -25 -2 247 0 272 1 384 2 248 2 -137 2 -359 0
-495z m604 560 c-12 -20 -14 -14 -5 12 4 9 9 14 11 11 3 -2 0 -13 -6 -23z
m-443 -158 c-3 -3 -9 2 -12 12 -6 14 -5 15 5 6 7 -7 10 -15 7 -18z m725 -80
c-3 -9 -8 -14 -10 -11 -3 3 -2 9 2 15 9 16 15 13 8 -4z m-643 -100 c0 -5 -5
-3 -10 5 -5 8 -10 20 -10 25 0 6 5 3 10 -5 5 -8 10 -19 10 -25z m563 -80 c-3
-9 -8 -14 -10 -11 -3 3 -2 9 2 15 9 16 15 13 8 -4z m-493 -80 c0 -5 -5 -3 -10
5 -5 8 -10 20 -10 25 0 6 5 3 10 -5 5 -8 10 -19 10 -25z m80 -190 c0 -5 -5 -3
-10 5 -5 8 -10 20 -10 25 0 6 5 3 10 -5 5 -8 10 -19 10 -25z m271 -52 c-12
-20 -14 -14 -5 12 4 9 9 14 11 11 3 -2 0 -13 -6 -23z m-243 -8 c-3 -3 -9 2
-12 12 -6 14 -5 15 5 6 7 -7 10 -15 7 -18z"/>
<path d="M1971 1324 c1 -252 5 -639 9 -859 4 -237 5 -53 2 455 -3 470 -6 857
-8 859 -2 2 -3 -202 -3 -455z"/>
<path d="M1230 1285 c-11 -13 -11 -18 0 -28 10 -9 11 -9 6 1 -4 7 -2 19 4 27
7 8 10 15 7 15 -2 0 -10 -7 -17 -15z"/>
<path d="M57 28 c6 -10 380 -10 386 0 3 4 -84 7 -193 7 -109 0 -196 -3 -193
-7z"/>
<path d="M1610 31 c-30 -4 34 -6 143 -5 109 1 199 3 201 5 7 6 -284 6 -344 0z"/>
</g>
</svg>
